<svg width="65" height="65" viewBox="0 0 65 65" fill="none" xmlns="http://www.w3.org/2000/svg">
<path d="M65 32.5C65 25.9788 63.0382 19.6084 59.3697 14.2169C55.7011 8.82544 50.4955 4.66227 44.4295 2.26859C38.3634 -0.125084 31.7176 -0.638549 25.3559 0.794943C18.9942 2.22844 13.2108 5.54258 8.75764 10.3066C4.30446 15.0705 1.38742 21.064 0.385727 27.5078C-0.615969 33.9517 0.344008 40.5478 3.14087 46.4388C5.93773 52.3298 10.4421 57.2432 16.0685 60.5402C21.6948 63.8373 28.1829 65.3655 34.6893 64.9262L33.9592 54.1121C29.6226 54.4049 25.2983 53.3864 21.5483 51.1889C17.7984 48.9914 14.7962 45.7166 12.9321 41.7903C11.068 37.8639 10.4281 33.4675 11.0958 29.1727C11.7634 24.8779 13.7076 20.8832 16.6757 17.708C19.6437 14.5328 23.4983 12.3239 27.7384 11.3685C31.9785 10.4131 36.408 10.7553 40.451 12.3507C44.494 13.9461 47.9636 16.7208 50.4087 20.3143C52.8538 23.9077 54.1614 28.1536 54.1614 32.5H65Z" fill="#E06D34"/>
</svg>
