<svg width="353" height="136" viewBox="0 0 353 136" fill="none" xmlns="http://www.w3.org/2000/svg">
<g clip-path="url(#clip0_4214_12674)">
<rect width="353" height="136" rx="20" fill="#E06D34"/>
<mask id="mask0_4214_12674" style="mask-type:alpha" maskUnits="userSpaceOnUse" x="-1" y="0" width="354" height="136">
<rect x="-1" width="354" height="136" rx="20" fill="#D9D9D9"/>
</mask>
<g mask="url(#mask0_4214_12674)">
<path d="M227.572 105.7L353.759 140.385C354.556 140.604 355.37 140.481 356.029 140.098C356.694 139.728 357.216 139.091 357.435 138.295C357.499 138.063 357.53 137.833 357.54 137.597C357.275 138.088 356.873 138.487 356.4 138.747C355.742 139.13 354.927 139.253 354.131 139.034L227.943 104.349C226.582 103.975 225.701 102.724 225.747 101.371C225.636 101.579 225.545 101.792 225.481 102.024C225.043 103.617 225.979 105.262 227.572 105.7ZM344.314 182.715C343.656 183.098 342.842 183.221 342.045 183.002L215.858 148.317C214.497 147.943 213.615 146.692 213.662 145.339C213.55 145.546 213.459 145.76 213.395 145.992C212.958 147.585 213.893 149.23 215.486 149.668L341.674 184.353C342.47 184.572 343.285 184.449 343.943 184.066C344.611 183.686 345.131 183.059 345.35 182.263C345.414 182.031 345.444 181.801 345.455 181.565C345.19 182.056 344.79 182.445 344.314 182.715Z" stroke="#EDAB8A" stroke-miterlimit="10"/>
<path d="M370.057 62.8642L249.324 29.6779C239.928 27.0951 230.214 32.612 227.631 42.0085L185.039 196.96C185.019 197.031 185.06 197.118 185.141 197.14L339.619 239.602C339.699 239.624 339.779 239.57 339.799 239.499L382.391 84.5478C384.974 75.1513 379.454 65.447 370.057 62.8642ZM238.902 53.1961C239.656 50.4538 242.486 48.8353 245.229 49.5891L300.791 64.8617C303.533 65.6155 305.139 68.4534 304.385 71.1957L298.809 91.4808C298.055 94.2232 295.228 95.8315 292.485 95.0777L236.923 79.8051C234.181 79.0514 232.572 76.2236 233.326 73.4813L238.902 53.1961ZM337.29 211.581C337.071 212.378 336.552 213.005 335.884 213.385C335.225 213.768 334.411 213.891 333.614 213.672L207.427 178.986C205.834 178.549 204.898 176.903 205.336 175.31C205.4 175.078 205.491 174.865 205.602 174.657C205.613 174.421 205.644 174.191 205.707 173.959C205.926 173.163 206.446 172.536 207.114 172.156C207.772 171.773 208.587 171.65 209.383 171.868L335.571 206.554C337.164 206.992 338.1 208.637 337.662 210.23C337.598 210.462 337.507 210.675 337.395 210.883C337.385 211.119 337.354 211.349 337.29 211.581ZM341.32 196.922C341.101 197.718 340.581 198.345 339.913 198.725C339.255 199.108 338.44 199.231 337.644 199.013L211.456 164.327C209.863 163.889 208.928 162.244 209.365 160.651C209.429 160.419 209.52 160.206 209.632 159.998C209.642 159.762 209.673 159.532 209.737 159.3C209.956 158.503 210.475 157.876 211.144 157.496C211.802 157.113 212.616 156.99 213.413 157.209L339.6 191.895C341.193 192.332 342.129 193.978 341.691 195.571C341.627 195.803 341.536 196.016 341.425 196.224C341.414 196.46 341.384 196.69 341.32 196.922ZM345.349 182.262C345.13 183.059 344.611 183.686 343.943 184.066C343.284 184.449 342.47 184.572 341.673 184.353L215.486 149.668C213.893 149.23 212.957 147.585 213.395 145.992C213.459 145.76 213.55 145.546 213.661 145.338C213.672 145.103 213.703 144.873 213.766 144.641C213.985 143.844 214.505 143.217 215.173 142.837C215.831 142.454 216.646 142.331 217.442 142.55L343.63 177.235C345.223 177.673 346.158 179.318 345.721 180.911C345.657 181.143 345.566 181.357 345.454 181.565C345.444 181.8 345.413 182.03 345.349 182.262ZM349.379 167.603C349.16 168.399 348.638 169.037 347.969 169.417C347.311 169.8 346.496 169.923 345.7 169.704L219.513 135.018C217.92 134.581 216.987 132.925 217.424 131.332C217.488 131.1 217.579 130.887 217.691 130.679C217.699 130.453 217.732 130.213 217.796 129.981C218.015 129.185 218.534 128.558 219.202 128.177C219.861 127.795 220.675 127.671 221.472 127.89L347.659 162.576C349.252 163.014 350.188 164.659 349.75 166.252C349.686 166.484 349.592 166.707 349.484 166.905C349.473 167.141 349.442 167.371 349.379 167.603ZM353.405 152.954C353.186 153.75 352.664 154.387 351.999 154.758C351.34 155.14 350.526 155.264 349.729 155.045L223.542 120.359C221.949 119.921 221.013 118.276 221.451 116.683C221.515 116.451 221.606 116.238 221.717 116.03C221.728 115.794 221.759 115.564 221.822 115.332C222.041 114.536 222.564 113.898 223.232 113.518C223.89 113.135 224.705 113.012 225.501 113.231L351.689 147.917C353.282 148.354 354.215 150.01 353.777 151.603C353.713 151.835 353.622 152.048 353.51 152.256C353.5 152.492 353.469 152.722 353.405 152.954ZM357.435 138.294C357.216 139.091 356.694 139.728 356.028 140.098C355.37 140.481 354.555 140.604 353.759 140.385L227.571 105.7C225.978 105.262 225.043 103.617 225.481 102.024C225.544 101.792 225.636 101.578 225.747 101.37C225.757 101.135 225.788 100.905 225.852 100.673C226.071 99.8762 226.593 99.239 227.259 98.8689C227.917 98.4859 228.731 98.3628 229.528 98.5818L355.715 133.267C357.308 133.705 358.244 135.35 357.806 136.943C357.742 137.175 357.651 137.389 357.54 137.597C357.529 137.832 357.499 138.062 357.435 138.294Z" stroke="#EDAB8A" stroke-miterlimit="10"/>
<path d="M299.195 90.0796L298.81 91.481C298.056 94.2234 295.228 95.8317 292.486 95.078L236.923 79.8053C234.181 79.0516 232.573 76.2238 233.326 73.4815L233.712 72.0801C232.958 74.8224 234.566 77.6501 237.309 78.4039L292.871 93.6765C295.613 94.4303 298.441 92.822 299.195 90.0796Z" stroke="#EDAB8A" stroke-miterlimit="10"/>
<path d="M357.435 138.295C357.216 139.091 356.694 139.728 356.028 140.098C355.37 140.481 354.555 140.604 353.759 140.385L227.571 105.7C225.979 105.262 225.043 103.617 225.481 102.024C225.544 101.792 225.636 101.579 225.747 101.371C225.7 102.724 226.582 103.975 227.943 104.349L354.13 139.034C354.927 139.253 355.741 139.13 356.4 138.747C356.872 138.487 357.275 138.088 357.54 137.597C357.529 137.833 357.499 138.063 357.435 138.295Z" stroke="#EDAB8A" stroke-miterlimit="10"/>
<path d="M357.807 136.943C357.743 137.175 357.652 137.389 357.54 137.597C357.275 138.088 356.873 138.487 356.4 138.747C355.742 139.13 354.927 139.253 354.13 139.034L227.943 104.349C226.582 103.975 225.7 102.724 225.747 101.37C225.758 101.135 225.788 100.905 225.852 100.673C226.071 99.8763 226.593 99.2391 227.259 98.869C227.917 98.4861 228.732 98.363 229.528 98.5819L355.716 133.267C357.309 133.705 358.244 135.351 357.807 136.943Z" stroke="#EDAB8A" stroke-miterlimit="10"/>
<path d="M353.406 152.954C353.187 153.75 352.665 154.387 351.999 154.758C351.341 155.14 350.526 155.264 349.73 155.045L223.542 120.359C221.949 119.921 221.013 118.276 221.451 116.683C221.515 116.451 221.606 116.238 221.718 116.03C221.671 117.383 222.552 118.634 223.914 119.008L350.101 153.694C350.897 153.913 351.712 153.789 352.37 153.407C352.843 153.146 353.246 152.747 353.511 152.256C353.5 152.492 353.469 152.722 353.406 152.954Z" stroke="#EDAB8A" stroke-miterlimit="10"/>
<path d="M353.777 151.603C353.714 151.835 353.622 152.048 353.511 152.256C353.246 152.747 352.843 153.146 352.371 153.407C351.712 153.789 350.898 153.913 350.101 153.694L223.914 119.008C222.553 118.634 221.671 117.383 221.718 116.03C221.729 115.794 221.759 115.564 221.823 115.332C222.042 114.536 222.564 113.898 223.233 113.518C223.891 113.135 224.705 113.012 225.502 113.231L351.689 147.917C353.282 148.354 354.215 150.01 353.777 151.603Z" stroke="#EDAB8A" stroke-miterlimit="10"/>
<path d="M349.379 167.603C349.16 168.4 348.638 169.037 347.969 169.417C347.311 169.8 346.496 169.923 345.7 169.704L219.513 135.019C217.92 134.581 216.987 132.925 217.424 131.332C217.488 131.101 217.579 130.887 217.691 130.679C217.644 132.033 218.523 133.294 219.884 133.668L346.071 168.353C346.868 168.572 347.682 168.449 348.341 168.066C348.816 167.796 349.216 167.407 349.484 166.906C349.473 167.141 349.442 167.371 349.379 167.603Z" stroke="#EDAB8A" stroke-miterlimit="10"/>
<path d="M349.75 166.252C349.687 166.484 349.593 166.708 349.484 166.905C349.216 167.407 348.816 167.795 348.341 168.066C347.683 168.449 346.868 168.572 346.072 168.353L219.884 133.668C218.523 133.293 217.644 132.033 217.691 130.679C217.699 130.453 217.732 130.213 217.796 129.981C218.015 129.185 218.534 128.558 219.203 128.178C219.861 127.795 220.676 127.672 221.472 127.89L347.659 162.576C349.252 163.014 350.188 164.659 349.75 166.252Z" stroke="#EDAB8A" stroke-miterlimit="10"/>
<path d="M304.385 71.1959L299.195 90.0796C298.441 92.8219 295.613 94.4303 292.871 93.6765L237.309 78.4039C234.566 77.6501 232.958 74.8224 233.712 72.08L238.902 53.1963C239.656 50.454 242.487 48.8355 245.229 49.5893L300.791 64.8619C303.534 65.6157 305.139 68.4535 304.385 71.1959Z" stroke="#EDAB8A" stroke-miterlimit="10"/>
</g>
</g>
<rect x="0.5" y="0.5" width="352" height="135" rx="19.5" stroke="#D84901"/>
<defs>
<clipPath id="clip0_4214_12674">
<rect width="353" height="136" rx="20" fill="white"/>
</clipPath>
</defs>
</svg>
