<?xml version="1.0" encoding="UTF-8"?>
<svg id="Untitled-3_xA0_Image" xmlns="http://www.w3.org/2000/svg" version="1.1" viewBox="0 0 240 240">
  <!-- Generator: Adobe Illustrator 30.1.0, SVG Export Plug-In . SVG Version: 2.1.1 Build 136)  -->
  <defs>
    <style>
      .st0 {
        fill: #212222;
      }
    </style>
  </defs>
  <path class="st0" d="M147.3,140c6-2.3,10.8-5.4,15.4-9.5,6.2-5.5,10.8-12.4,12.7-20.5s.9-11.9-1.1-17.6c-5-14.4-17.7-23.6-33.1-22.2-6.8.6-12.7,3.4-18.4,7.2-11.2,7.4-20.4,17.2-26.8,29-4.2,7.9-8.8,20.6-4.9,29.3,3.7,8.3,15.1,10.3,23.3,10.4,11.2.2,22.2-1.9,32.8-6Z"/>
  <path class="st0" d="M180.9,222.4c-20.8,5.2-36-7.9-50-21.5-14.2-12.8-21.4-26.1,5.5-22.8,19.3,2,39.4,4.3,57.6-3.7,11.1-4.9,20.2-14.5,23.6-26.1,10.6-36.2-30.8-82.4-64.3-90.8-15.8-4.3-31.4,1-43,12.1-3.7,3.3-7.1,7-10.9,10.1-11.9,10.5-21.6,4.9-29.1-6.8-5.8-9-11.4-18.9-13.8-29.4-6.6-32.2,35.5-30.7,56.8-29.7,30.7,1.8,66.2,8,84.7,35.4,21.4,33.6,36.7,75.6,29.8,115.6-4.2,24.9-20.8,51.4-46.7,57.7h-.2Z"/>
  <path class="st0" d="M74.7,147.5c15.8,11.9,25.4,30.7,17.3,51.1-3.4,10.6-25.4,42.1-32.6,20.8-1.7-5.6-1.7-12.5-2-18.5-1-27.1-4.7-55.7-21.3-77.2-3.3-4.2-7.2-7.7-11.2-11.1-6-4.9-13.1-10.8-14.2-19-1.9-11.2,7.5-22.5,18.3-21.3,12.3,1,24.2,13.2,31.1,23.6,3.1,5,3.9,11-3.7,10.3-4.9.1-18.5-6.5-19.3,2,1.3,14.6,26.8,30.3,37.4,39h.2Z"/>
</svg>