<svg width="24" height="24" viewBox="0 0 24 24" fill="none" xmlns="http://www.w3.org/2000/svg">
<path d="M15.9041 13.1607L13.7828 15.282L19.779 21.2782L21.9003 19.1569L15.9041 13.1607Z" fill="#424242"/>
<path d="M17.5001 10.1102C19.4301 10.1102 21.0001 8.54016 21.0001 6.61016C21.0001 6.03016 20.8401 5.49016 20.5901 5.01016L17.8901 7.71016L16.4001 6.22016L19.1001 3.52016C18.6201 3.27016 18.0801 3.11016 17.5001 3.11016C15.5701 3.11016 14.0001 4.68016 14.0001 6.61016C14.0001 7.02016 14.0801 7.41016 14.2101 7.77016L12.3601 9.62016L10.5801 7.84016L11.2901 7.13016L9.8801 5.72016L12.0001 3.60016C10.8301 2.43016 8.9301 2.43016 7.7601 3.60016L4.2201 7.14016L5.6301 8.55016H2.8101L2.1001 9.26016L5.6401 12.8002L6.3501 12.0902V9.26016L7.7601 10.6702L8.4701 9.96016L10.2501 11.7402L2.8401 19.1502L4.9601 21.2702L16.3401 9.90016C16.7001 10.0302 17.0901 10.1102 17.5001 10.1102Z" fill="#424242"/>
</svg>
